PathFileType	4	(X/Y/Z)	 s08c0402.trc
DataRate	CameraRate	NumFrames	NumMarkers	Units	OrigDataRate	OrigDataStartFrame	OrigNumFrames
200	200	5	50	mm	200	1001	2000
Frame#	Time	racr			lacr			c7			jug			rlel			rdr			llel			ldr			s2			lic			ric			lasi			rasi			rpsi			lpsi			rgt			lgt			rth1			rth2			rth3			rth4			rlfc			rmfc			rsh1			rsh2			rsh3			rsh4			rlmal			rmmal			rcal			rtoe			rmt5			lth1			lth2			lth4			lth3			llfc			lmfc			llmal			lmmal			lcal			lmt5			lsh1			lsh2			lsh3			lsh4			ltoe			SBIKE			LBIKE			RBIKE			
		X1	Y1	Z1	X2	Y2	Z2	X3	Y3	Z3	X4	Y4	Z4	X5	Y5	Z5	X6	Y6	Z6	X7	Y7	Z7	X8	Y8	Z8	X9	Y9	Z9	X10	Y10	Z10	X11	Y11	Z11	X12	Y12	Z12	X13	Y13	Z13	X14	Y14	Z14	X15	Y15	Z15	X16	Y16	Z16	X17	Y17	Z17	X18	Y18	Z18	X19	Y19	Z19	X20	Y20	Z20	X21	Y21	Z21	X22	Y22	Z22	X23	Y23	Z23	X24	Y24	Z24	X25	Y25	Z25	X26	Y26	Z26	X27	Y27	Z27	X28	Y28	Z28	X29	Y29	Z29	X30	Y30	Z30	X31	Y31	Z31	X32	Y32	Z32	X33	Y33	Z33	X34	Y34	Z34	X35	Y35	Z35	X36	Y36	Z36	X37	Y37	Z37	X38	Y38	Z38	X39	Y39	Z39	X40	Y40	Z40	X41	Y41	Z41	X42	Y42	Z42	X43	Y43	Z43	X44	Y44	Z44	X45	Y45	Z45	X46	Y46	Z46	X47	Y47	Z47	X48	Y48	Z48	X49	Y49	Z49	X50	Y50	Z50	
1001	5.0050	877.946120	1358.125236	-21.781032	803.597554	1394.293131	-339.993228	834.515867	1434.404012	-158.372574	780.849354	1286.017333	-178.741122	710.581976	1164.017326	127.169622	782.010713	940.290142	-32.920612	690.669135	1180.441395	-491.939229	790.568550	937.022237	-429.163168	261.796842	1263.965436	-211.822290	436.248163	1233.745485	-344.097045	398.862801	1261.405453	-37.638330	436.885211	1172.986434	-312.803388	422.668579	1207.454774	-67.261932	291.916423	1303.507502	-165.666886	302.822409	1301.973671	-257.936557	335.863471	1161.269990	-7.435575	331.123632	1121.087581	-380.820258	455.030815	1034.806083	-3.845340	531.763676	988.480078	-8.253447	573.812785	913.405600	-16.395521	558.240739	1014.769902	-14.870020	643.347591	822.793764	-38.401198	630.733929	821.476441	-153.807785	540.067643	747.209515	-14.668229	495.088196	671.222978	-35.204149	420.146362	629.788227	-42.982174	518.488501	655.525445	-66.199503	327.936970	548.581220	-58.083410	352.868912	563.590812	-144.604010	240.052199	548.268432	-103.867914	516.383034	440.298519	-94.870084	421.798698	439.948729	-29.905788	353.583732	990.342178	-399.002955	384.061315	908.898888	-402.579648	419.576342	911.885868	-395.448759	368.891863	820.950319	-404.642986	357.167146	688.383517	-394.148640	355.001703	657.655158	-292.229435	130.085356	335.220888	-399.941524	169.059889	332.838743	-317.946407	74.358118	353.882813	-358.738038	193.398085	174.068820	-415.318997	280.586942	581.559813	-422.427114	256.039884	500.240069	-408.100740	193.553159	438.137165	-407.376485	280.207821	488.816365	-378.392627	275.095840	146.093049	-347.088548	-141.690686	941.382895	-220.706198	18.208881	84.499826	-425.901440	11.183573	80.587676	-27.385918	
1002	5.0100	878.086645	1354.031909	-21.632584	803.405830	1392.108300	-338.345288	835.168969	1431.912857	-157.434612	779.583315	1284.280310	-178.259099	709.061269	1162.575685	129.145599	781.979498	940.552330	-32.445564	689.333033	1179.947618	-490.944071	790.741783	937.223156	-429.098343	261.827109	1266.808983	-211.563464	435.869336	1236.787122	-344.608248	398.427526	1261.589420	-37.706616	436.521860	1175.859830	-313.539453	420.708194	1208.701221	-66.745677	292.028982	1306.343461	-164.639009	303.112214	1304.890586	-257.022855	333.899062	1162.327644	-8.404470	331.640082	1123.815258	-381.628579	451.312127	1033.339102	-5.042479	526.846064	986.203503	-8.224832	566.932298	910.140227	-16.295052	553.623323	1011.942402	-14.302177	635.758225	818.421956	-38.037873	622.342624	817.066745	-152.486603	534.061296	739.542288	-14.525366	491.354881	662.332616	-36.035103	417.769216	618.681226	-44.227814	515.321080	647.601413	-67.027406	328.638990	536.224794	-59.367253	353.203321	551.563607	-145.962661	241.098728	531.590140	-105.704600	522.336815	438.124786	-93.701717	427.109488	432.570761	-29.888207	358.159739	992.025783	-399.168332	390.850164	911.470341	-403.069901	426.278589	915.303632	-395.640500	378.006562	822.967207	-405.191266	368.517910	690.619124	-395.460558	365.426097	660.073188	-292.915161	129.294648	344.532909	-401.016035	167.384707	341.914985	-318.252851	73.327540	365.044101	-359.015016	186.319865	181.449669	-415.706254	289.241940	585.658614	-423.244142	261.451452	505.413166	-408.427406	196.769107	445.666585	-408.099289	284.795105	493.397254	-378.317174	266.773712	150.537362	-346.894411	-141.560542	941.507435	-220.485166	18.211755	84.552623	-425.837305	11.196799	80.585582	-27.385555	
1003	5.0150	878.182672	1350.316473	-21.921390	803.046200	1390.099647	-337.336137	835.758992	1429.636792	-156.792308	778.365061	1282.734679	-178.010764	707.425873	1161.296453	131.193430	781.641224	940.500361	-32.139298	687.763128	1179.617514	-490.318472	791.475997	937.838063	-429.841646	261.777048	1269.571568	-211.105519	435.516894	1239.646353	-344.974598	397.996013	1261.534485	-37.636342	436.219022	1178.695597	-313.951987	418.832935	1209.822742	-66.190198	291.882435	1308.420297	-159.945747	303.441522	1307.542045	-255.872100	331.827055	1163.237156	-9.420367	332.552072	1126.218344	-382.411429	446.710156	1031.842642	-5.273589	520.954563	983.535593	-7.263035	560.073784	906.563128	-16.571169	548.680460	1008.780070	-13.617425	627.858924	813.594751	-37.439442	613.390846	812.839786	-151.175873	527.675418	731.311835	-15.062021	487.550715	653.246520	-37.079824	415.575826	607.079538	-45.762766	512.085053	639.372605	-67.984826	329.694171	523.523077	-60.878875	354.566045	539.359796	-147.065485	242.273196	515.059313	-107.485154	527.721830	434.683656	-91.752216	431.995946	424.766690	-29.349832	363.019760	993.802708	-399.111390	398.086076	914.084557	-403.055778	433.238083	918.933993	-395.201789	387.947343	825.474503	-405.729734	380.637283	692.957582	-396.459359	375.915173	662.689393	-293.455439	129.714640	353.876074	-402.226674	161.478559	353.541367	-319.271275	74.073300	376.728203	-359.533658	179.795016	188.860046	-415.888677	298.716738	589.849823	-424.167339	267.795004	510.668807	-408.608662	201.024567	453.334916	-408.800000	290.297955	498.233744	-378.117728	258.848284	154.864729	-346.947988	-141.345166	941.613035	-220.214646	18.249909	84.665495	-425.817501	11.154675	80.427614	-27.545643	
1004	5.0200	878.167192	1347.014776	-22.492718	802.696910	1388.308083	-336.830398	836.144958	1427.552182	-156.609479	777.375192	1281.217144	-178.125091	706.281628	1159.894360	132.857264	780.973732	940.107306	-31.914632	686.114563	1179.429789	-490.096900	791.576615	938.381229	-430.473600	261.692523	1272.046555	-210.773791	435.208128	1242.345202	-345.280054	397.567661	1261.219646	-37.456449	436.024336	1181.179780	-314.058537	417.061402	1210.787678	-65.614453	291.905528	1310.651652	-158.925741	303.865011	1310.105452	-254.753643	329.396479	1163.437926	-10.788752	333.925516	1128.389078	-383.219329	441.862544	1030.267997	-5.534194	515.379075	980.513897	-7.414259	553.124881	903.018157	-17.185925	543.459482	1005.404897	-12.818495	619.845522	808.494540	-36.903318	604.810390	808.814475	-150.123469	520.890746	723.368212	-15.333479	484.149817	643.881037	-38.318112	413.509582	595.365682	-47.246979	508.885732	631.152719	-68.956836	330.831874	510.813124	-61.868229	356.202670	526.957834	-148.252348	244.688495	498.907048	-109.683600	532.681040	430.183349	-90.483487	436.905613	416.300025	-28.986830	368.219377	995.721464	-398.841915	405.574548	916.988947	-402.596334	440.399710	922.711040	-393.982580	397.954506	828.267132	-406.418515	392.402788	695.415458	-396.834937	386.378206	665.493849	-293.075112	131.458659	363.147590	-403.367459	162.879002	362.041812	-320.034949	76.466121	388.606251	-360.254145	174.026909	196.199380	-415.874319	308.643053	593.634329	-424.315217	274.840605	516.059640	-408.793471	206.255361	460.908822	-409.436063	296.331153	503.151166	-377.710517	251.267156	159.118077	-347.508810	-141.072275	941.743487	-219.964520	18.302960	84.769519	-425.810993	11.215190	80.626240	-27.376940	
1005	5.0250	878.083981	1344.151162	-23.193102	802.239623	1386.695355	-336.909754	836.363142	1425.679657	-156.772704	776.515048	1279.776422	-178.404743	705.301413	1158.537762	134.309062	780.048186	939.494567	-31.879148	684.070822	1179.417581	-490.690854	791.777182	938.381272	-430.665146	261.714040	1274.283117	-210.690612	434.956147	1244.881042	-345.505459	397.146020	1260.756404	-37.195063	435.871926	1183.767227	-314.016500	415.412195	1211.564368	-65.037403	291.825902	1312.720781	-157.839816	304.079357	1312.072863	-253.745821	326.862451	1163.660297	-11.593091	335.728222	1130.289469	-384.143560	436.723475	1028.521117	-5.276369	509.594844	977.459488	-7.292294	546.423361	899.325466	-18.380446	538.027028	1002.008526	-11.973823	612.034647	803.413575	-36.493556	597.525213	804.772288	-149.567484	514.388278	715.502858	-15.629859	480.691106	634.834826	-38.914743	411.804193	583.904112	-48.296998	505.867370	623.119498	-69.636344	332.611230	498.237843	-62.550984	358.753814	513.674543	-149.112662	247.426098	483.842651	-110.748940	536.985679	424.437819	-90.478852	441.810461	407.454459	-29.005470	373.637921	997.841018	-398.432777	413.216685	920.108028	-401.635828	447.652726	926.630916	-392.143318	408.020811	831.274349	-406.586061	404.000461	697.861726	-396.625311	396.648898	668.285847	-294.156248	133.891792	372.246588	-404.311236	164.787687	370.492602	-320.559773	79.736850	400.432368	-360.696452	168.839883	203.728719	-415.956806	318.525385	597.705130	-424.377432	283.420173	523.422074	-411.638567	212.079027	468.339433	-410.027423	303.880822	510.118368	-379.751776	243.473447	161.433266	-345.115169	-140.814610	941.826156	-219.723562	18.374833	84.824707	-425.799447	11.234555	80.436845	-27.528966	
